<?xml version="1.0" encoding="iso-8859-1"?>
<!-- Generator: Adobe Illustrator 17.1.0, SVG Export Plug-In . SVG Version: 6.00 Build 0)  -->
<!DOCTYPE svg PUBLIC "-//W3C//DTD SVG 1.1//EN" "http://www.w3.org/Graphics/SVG/1.1/DTD/svg11.dtd">
<svg fill="#fff" version="1.1" id="Capa_1" xmlns="http://www.w3.org/2000/svg" xmlns:xlink="http://www.w3.org/1999/xlink" x="0px" y="0px"
	 viewBox="0 0 465 465" style="enable-background:new 0 0 465 465;" xml:space="preserve">
<g>
	<path d="M461.091,111.145l-110-60c-1.494-0.816-3.22-1.099-4.895-0.802l-340,60C2.613,110.976,0,114.089,0,117.729v120v40
		c0,3.64,2.613,6.753,6.197,7.386L10,285.785v63.554c0,3.64,2.613,6.754,6.197,7.386l328.287,57.933c0.1,0.018,0.2,0.026,0.301,0.04
		c0.099,0.013,0.197,0.029,0.297,0.039c0.235,0.021,0.471,0.035,0.706,0.035c0.294,0,0.583-0.021,0.868-0.054
		c0.075-0.009,0.149-0.023,0.223-0.034c0.218-0.032,0.433-0.072,0.645-0.122c0.077-0.019,0.154-0.038,0.23-0.06
		c0.222-0.061,0.439-0.13,0.652-0.21c0.057-0.021,0.115-0.04,0.172-0.063c0.28-0.113,0.554-0.238,0.816-0.383l101.697-55.471
		c2.41-1.314,3.909-3.84,3.909-6.584v-64.157l6.091-3.322c2.41-1.314,3.909-3.84,3.909-6.584v-40v-120
		C465,114.985,463.501,112.459,461.091,111.145z M450,273.277l-6.055,3.303c-0.013,0.007-0.027,0.015-0.04,0.022L355,325.094
		v-22.913l95-51.818V273.277z M15,124.021l331.215-58.449L450,122.181v111.096l-103.785,56.609L193.575,262.95
		c-4.082-0.722-7.969,2.004-8.689,6.082c-0.72,4.079,2.003,7.97,6.083,8.689L340,304.021v24.769L15,271.437v-24.769l146.425,25.839
		c4.079,0.719,7.969-2.004,8.689-6.082c0.72-4.079-2.003-7.97-6.083-8.689L15,231.437V124.021z M25,288.433l313.287,55.286v54.613
		L25,343.047V288.433z M440,347.34l-86.713,47.297v-51.521L440,295.817V347.34z"/>
	<path d="M329.725,234.989c0,4.143,3.358,7.5,7.5,7.5s7.5-3.357,7.5-7.5v-49.76H397.5c4.142,0,7.5-3.357,7.5-7.5s-3.358-7.5-7.5-7.5
		h-52.775v-49.76c0-4.143-3.358-7.5-7.5-7.5s-7.5,3.357-7.5,7.5v49.76H67.5c-4.142,0-7.5,3.357-7.5,7.5s3.358,7.5,7.5,7.5h262.225
		V234.989z"/>
</g>
<g>
</g>
<g>
</g>
<g>
</g>
<g>
</g>
<g>
</g>
<g>
</g>
<g>
</g>
<g>
</g>
<g>
</g>
<g>
</g>
<g>
</g>
<g>
</g>
<g>
</g>
<g>
</g>
<g>
</g>
</svg>
