<?xml version="1.0" encoding="iso-8859-1"?>
<!-- Generator: Adobe Illustrator 19.0.0, SVG Export Plug-In . SVG Version: 6.00 Build 0)  -->
<svg version="1.1" id="Capa_1" xmlns="http://www.w3.org/2000/svg" xmlns:xlink="http://www.w3.org/1999/xlink" x="0px" y="0px"
	 viewBox="0 0 512 512" style="enable-background:new 0 0 512 512;" xml:space="preserve">
<g>
	<g>
		<path d="M60.909,187.07c-4.2,0-7.604,3.405-7.604,7.604v20.151c0,4.199,3.405,7.604,7.604,7.604c4.2,0,7.604-3.405,7.604-7.604
			v-20.151C68.513,190.475,65.109,187.07,60.909,187.07z"/>
	</g>
</g>
<g>
	<g>
		<path d="M60.909,241.321c-4.2,0-7.604,3.405-7.604,7.604v20.151c0,4.199,3.405,7.604,7.604,7.604c4.2,0,7.604-3.405,7.604-7.604
			v-20.151C68.513,244.725,65.109,241.321,60.909,241.321z"/>
	</g>
</g>
<g>
	<g>
		<path d="M98.109,224.272H77.96c-4.2,0-7.604,3.405-7.604,7.604s3.404,7.604,7.604,7.604h20.149c4.2,0,7.604-3.405,7.604-7.604
			S102.31,224.272,98.109,224.272z"/>
	</g>
</g>
<g>
	<g>
		<path d="M43.86,224.272h-20.15c-4.2,0-7.604,3.405-7.604,7.604s3.404,7.604,7.604,7.604h20.15c4.2,0,7.604-3.405,7.604-7.604
			S48.06,224.272,43.86,224.272z"/>
	</g>
</g>
<g>
	<g>
		<path d="M496.33,77.684l-17.764-3.601c-14.544-2.948-25.845-14.251-28.794-28.795l-3.602-17.764
			c-1.478-7.292-7.706-12.383-15.145-12.383c-7.439,0-13.667,5.092-15.145,12.383l-3.602,17.764
			c-2.947,14.544-14.251,25.846-28.794,28.795l-17.764,3.6c-7.291,1.478-12.382,7.706-12.382,15.145
			c0,7.44,5.091,13.668,12.382,15.147l17.764,3.601c14.544,2.948,25.846,14.251,28.794,28.795l3.602,17.764
			c1.478,7.291,7.706,12.383,15.145,12.383c7.439,0,13.667-5.093,15.145-12.383l3.602-17.764
			c2.948-14.544,14.251-25.846,28.794-28.795l17.764-3.601c7.291-1.478,12.382-7.706,12.382-15.146
			C508.712,85.39,503.621,79.162,496.33,77.684z M493.308,93.071l-17.764,3.601c-20.546,4.165-36.512,20.132-40.677,40.678
			l-3.602,17.764c-0.018,0.088-0.036,0.147-0.037,0.168c-0.121,0.044-0.344,0.044-0.376,0.051c-0.001,0-0.035-0.062-0.067-0.22
			l-3.602-17.764c-4.164-20.545-20.131-36.512-40.677-40.678l-17.764-3.602c-0.088-0.018-0.147-0.036-0.168-0.039
			c-0.044-0.121-0.045-0.344-0.052-0.377c0.001,0.001,0.063-0.033,0.22-0.066l17.764-3.601
			c20.546-4.166,36.513-20.132,40.677-40.678l3.602-17.764c0.018-0.088,0.036-0.147,0.037-0.168
			c0.121-0.044,0.344-0.044,0.376-0.051c0.001,0,0.036,0.062,0.067,0.22l3.602,17.764c4.165,20.546,20.131,36.512,40.677,40.678
			l17.764,3.601c0.088,0.018,0.147,0.036,0.168,0.039c0.044,0.121,0.045,0.344,0.052,0.377
			C493.527,93.004,493.466,93.04,493.308,93.071z"/>
	</g>
</g>
<g>
	<g>
		<path d="M504.396,481.654H330.043v-62.912c0-4.199-3.404-7.604-7.604-7.604c-4.2,0-7.604,3.405-7.604,7.604v62.912H184.585
			v-36.693c5.915,3.067,12.54,4.728,19.419,4.728c23.305,0,42.266-18.96,42.266-42.266c0-23.305-18.96-42.266-42.266-42.266
			c-6.88,0-13.505,1.661-19.419,4.728v-40.733c0-1.744-0.599-3.435-1.698-4.789c-20.873-25.744-32.37-58.174-32.37-91.317v-14.338
			c4.89,3.029,10.649,4.783,16.811,4.783c10.123,0,19.159-4.729,25.03-12.087c5.865,6.518,14.36,10.624,23.798,10.624
			c9.776,0,18.536-4.408,24.415-11.336c5.878,6.927,14.638,11.334,24.413,11.334c2.498,0,4.947-0.289,7.329-0.848
			c3.089,3.837,6.994,6.99,11.452,9.19c-24.591,6.829-42.699,29.403-42.699,56.141c0,4.199,3.404,7.604,7.604,7.604
			s7.604-3.405,7.604-7.604c0-23.745,19.317-43.062,43.062-43.062h12.427c4.2,0,7.604-3.405,7.604-7.604v-1.993h21.601
			c4.2,0,7.604-3.405,7.604-7.604s-3.404-7.604-7.604-7.604h-42.266c-10.291,0-18.664-8.372-18.664-18.665
			c0-10.292,8.373-18.664,18.664-18.664h57.448c6.12,0,11.098,4.979,11.098,11.098v57.907c0,22.113-10.758,42.967-28.773,55.782
			l-0.191,0.136c-14.683,10.444-23.45,27.437-23.45,45.455v41.704c0,4.199,3.404,7.604,7.604,7.604s7.604-3.405,7.604-7.604v-41.704
			c0-13.106,6.376-25.466,17.051-33.059l0.191-0.136c22.024-15.665,35.171-41.152,35.171-68.178v-57.907
			c0-14.505-11.801-26.306-26.306-26.306h-10.318v-42.848c0-17.655-14.363-32.019-32.019-32.019c-8.097,0-15.496,3.027-21.14,8.001
			c-5.55-9.538-15.879-15.97-27.689-15.97c-11.901,0-22.299,6.531-27.817,16.194c-5.628-4.907-12.975-7.89-21.012-7.89
			c-15.473,0-28.415,11.032-31.379,25.643c-5.024-3.279-11.016-5.194-17.45-5.194c-17.655,0-32.019,14.363-32.019,32.019v89.004
			c0,35.709,12.08,70.673,34.068,98.765v149.843H7.604c-4.2,0-7.604,3.405-7.604,7.604s3.404,7.604,7.604,7.604h496.792
			c4.2,0,7.604-3.405,7.604-7.604S508.596,481.654,504.396,481.654z M184.585,388.613c5.08-5.266,12.024-8.248,19.419-8.248
			c14.92,0,27.058,12.138,27.058,27.058s-12.138,27.058-27.058,27.058c-7.395,0-14.34-2.983-19.419-8.249V388.613z M297.004,123.255
			c0-9.268,7.542-16.809,16.811-16.809c9.27,0,16.81,7.541,16.81,16.811v0.279c0,0.02-0.003,0.04-0.003,0.059v42.509h-31.919
			c-0.569,0-1.134,0.015-1.696,0.043v-42.553c0-0.013-0.002-0.026-0.002-0.04V123.255z M248.175,190.009V163.36v-39.768v-8.305h0
			c0-9.27,7.541-16.811,16.81-16.811c9.269,0,16.811,7.541,16.811,16.811v7.969v4.902v42.485
			c-10.13,5.861-16.966,16.811-16.966,29.333c0,2.333,0.237,4.611,0.688,6.813c-0.178,0.005-0.354,0.028-0.534,0.028
			c-9.257,0-16.788-7.52-16.81-16.771C248.174,190.035,248.175,190.022,248.175,190.009z M216.156,106.781
			c9.26,0,16.794,7.526,16.81,16.781c0,0.01-0.001,0.02-0.001,0.029v66.414c0,0.014,0.001,0.027,0.001,0.042
			c-0.021,9.251-7.552,16.772-16.809,16.772c-9.27,0-16.811-7.541-16.811-16.811v-28.825v-37.592h-0.001
			C199.345,114.323,206.887,106.781,216.156,106.781z M150.517,161.184v-17.142c0-9.27,7.541-16.811,16.811-16.811
			s16.81,7.541,16.81,16.811v17.143v28.825v1.462c0,9.27-7.541,16.811-16.81,16.811c-9.269,0-16.811-7.541-16.811-16.811V161.184z"
			/>
	</g>
</g>
<g>
	<g>
		<path d="M268.516,324.721c-15.341,0-27.821,12.482-27.821,27.822c0,15.341,12.482,27.822,27.821,27.822
			s27.821-12.482,27.821-27.822C296.338,337.203,283.857,324.721,268.516,324.721z M268.516,365.158
			c-6.955,0-12.613-5.659-12.613-12.614s5.658-12.614,12.613-12.614s12.613,5.659,12.613,12.614S275.471,365.158,268.516,365.158z"
			/>
	</g>
</g>
<g>
	<g>
		<path d="M291.204,416.676c-3.724-5.667-12.701-3.623-13.814,2.972c-1.116,6.613,6.629,11.334,12.021,7.359
			C292.636,424.629,293.401,420.005,291.204,416.676z"/>
	</g>
</g>
<g>
	<g>
		<path d="M189.149,276.115c-1.701-2.589-4.974-3.877-7.988-3.193c-3.152,0.716-5.59,3.432-5.895,6.666
			c-0.285,3.027,1.287,6.018,3.98,7.449c2.924,1.553,6.61,1.014,8.961-1.321C190.75,283.188,191.111,279.09,189.149,276.115z"/>
	</g>
</g>
<g>
	<g>
		<path d="M139.986,338.647c-4.2,0-7.604,3.405-7.604,7.604v72.994c0,4.199,3.405,7.604,7.604,7.604c4.2,0,7.604-3.405,7.604-7.604
			v-72.994C147.59,342.052,144.186,338.647,139.986,338.647z"/>
	</g>
</g>
<g>
	<g>
		<path d="M400.029,309.571c-4.2,0-7.604,3.405-7.604,7.604v89.904c0,4.199,3.404,7.604,7.604,7.604s7.604-3.405,7.604-7.604
			v-89.904C407.633,312.975,404.229,309.571,400.029,309.571z"/>
	</g>
</g>
<g>
	<g>
		<path d="M400.029,229.155c-4.2,0-7.604,3.405-7.604,7.604v55.067c0,4.199,3.404,7.604,7.604,7.604s7.604-3.405,7.604-7.604
			v-55.067C407.633,232.56,404.23,229.155,400.029,229.155z"/>
	</g>
</g>
<g>
	<g>
		<path d="M363.532,332.564c-4.2,0-7.604,3.405-7.604,7.604v95.806c0,4.199,3.404,7.604,7.604,7.604s7.604-3.405,7.604-7.604
			v-95.806C371.136,335.969,367.733,332.564,363.532,332.564z"/>
	</g>
</g>
<g>
</g>
<g>
</g>
<g>
</g>
<g>
</g>
<g>
</g>
<g>
</g>
<g>
</g>
<g>
</g>
<g>
</g>
<g>
</g>
<g>
</g>
<g>
</g>
<g>
</g>
<g>
</g>
<g>
</g>
</svg>
